<svg xmlns="http://www.w3.org/2000/svg" viewBox="0 0 332.95 332.95"><defs><style>.cls-1{fill:#020202;}.cls-2{fill:#fff;}</style></defs><g id="Layer_2" data-name="Layer 2"><g id="Layer_1-2" data-name="Layer 1"><circle class="cls-1" cx="166.48" cy="166.48" r="166.48"/><g id="_Radial_Repeat_" data-name="&lt;Radial Repeat&gt;"><path class="cls-2" d="M212.75,66.81c0,19.71-27.54,36.55-40.13,43.21a13.11,13.11,0,0,1-12.29,0c-12.59-6.66-40.12-23.5-40.12-43.21,0-25.56,20.71-29.58,46.27-29.58S212.75,41.25,212.75,66.81Z"/></g><g id="_Radial_Repeat_2" data-name="&lt;Radial Repeat&gt;"><path class="cls-2" d="M275.57,179.68c-18.75,6.1-43.27-14.89-53.5-24.8a13.12,13.12,0,0,1-3.8-11.69c2.45-14,9.95-45.43,28.7-51.52,24.31-7.9,34.53,10.56,42.43,34.87S299.87,171.79,275.57,179.68Z"/></g><g id="_Radial_Repeat_3" data-name="&lt;Radial Repeat&gt;"><path class="cls-2" d="M187.63,274.31c-11.59-15.95.79-45.76,7.06-58.55a13.13,13.13,0,0,1,9.94-7.22c14.11-2,46.28-4.57,57.87,11.38,15,20.67.62,36.1-20.05,51.12S202.65,295,187.63,274.31Z"/></g><g id="_Radial_Repeat_4" data-name="&lt;Radial Repeat&gt;"><path class="cls-2" d="M70.46,219.92C82,204,114.22,206.53,128.32,208.54a13.12,13.12,0,0,1,9.94,7.22c6.27,12.79,18.65,42.6,7.07,58.55-15,20.68-34.15,11.75-54.82-3.27S55.44,240.59,70.46,219.92Z"/></g><g id="_Radial_Repeat_5" data-name="&lt;Radial Repeat&gt;"><path class="cls-2" d="M86,91.67c18.75,6.09,26.25,37.49,28.7,51.52a13.14,13.14,0,0,1-3.79,11.69c-10.23,9.91-34.76,30.9-53.51,24.8-24.3-7.89-21.72-28.84-13.82-53.14S61.68,83.77,86,91.67Z"/></g><circle class="cls-2" cx="166.48" cy="166.48" r="14.6"/></g></g></svg>